grf
version=1
nRows=19
nColumns=37
inDegrees=no
endheader
time	ground_force_1_vx	ground_force_1_vy	ground_force_1_vz	ground_force_1_px	ground_force_1_py	ground_force_1_pz	ground_moment_1_mx	ground_moment_1_my	ground_moment_1_mz	ground_force_2_vx	ground_force_2_vy	ground_force_2_vz	ground_force_2_px	ground_force_2_py	ground_force_2_pz	ground_moment_2_mx	ground_moment_2_my	ground_moment_2_mz	ground_force_3_vx	ground_force_3_vy	ground_force_3_vz	ground_force_3_px	ground_force_3_py	ground_force_3_pz	ground_moment_3_mx	ground_moment_3_my	ground_moment_3_mz	ground_force_4_vx	ground_force_4_vy	ground_force_4_vz	ground_force_4_px	ground_force_4_py	ground_force_4_pz	ground_moment_4_mx	ground_moment_4_my	ground_moment_4_mz
      2.30000000	      0.00000000	     -0.00000000	      0.00000000	      0.00000000	      0.00000000	      0.00000000	      0.00000000	      0.00000000	      0.00000000	     -7.88032579	      7.45660162	   -774.87829590	   -318.77478428	  -1078.00305665	      0.00000000	      0.00000000	      0.00000000	   1164.54743363	      6.71252318	     -3.15021431	    -56.91083908	   -508.90066238	   -855.90111061	      0.00000000	      0.00000000	      0.00000000	    181.03043936	      0.00000000	     -0.00000000	      0.00000000	      0.00000000	      0.00000000	      0.00000000	      0.00000000	      0.00000000	      0.00000000
      2.31000000	      0.00000000	     -0.00000000	      0.00000000	      0.00000000	      0.00000000	      0.00000000	      0.00000000	      0.00000000	      0.00000000	     -7.85011339	      7.04212379	   -774.05377197	   -319.22349466	  -1078.06282881	      0.00000000	      0.00000000	      0.00000000	   1002.99742395	      6.68288683	     -2.79684602	    -52.95459366	   -506.98109015	   -853.39864903	      0.00000000	      0.00000000	      0.00000000	     12.09834917	      0.00000000	     -0.00000000	      0.00000000	      0.00000000	      0.00000000	      0.00000000	      0.00000000	      0.00000000	      0.00000000
      2.32000000	      0.00000000	     -0.00000000	      0.00000000	      0.00000000	      0.00000000	      0.00000000	      0.00000000	      0.00000000	      0.00000000	     -7.07816362	      7.24947166	   -773.58020020	   -318.79750406	  -1078.11287327	      0.00000000	      0.00000000	      0.00000000	   1322.03643844	      6.26865507	     -2.62015064	    -48.99784470	   -506.38218019	   -856.07787232	      0.00000000	      0.00000000	      0.00000000	     71.77459684	      0.00000000	     -0.00000000	      0.00000000	      0.00000000	      0.00000000	      0.00000000	      0.00000000	      0.00000000	      0.00000000
      2.33000000	      0.00000000	     -0.00000000	      0.00000000	      0.00000000	      0.00000000	      0.00000000	      0.00000000	      0.00000000	      0.00000000	     -7.07841158	      6.44657755	   -768.63830566	   -318.54129784	  -1077.15165472	      0.00000000	     -0.00000000	      0.00000000	   1239.10953616	      5.91429544	     -2.70804767	    -46.90461349	   -503.20174526	   -856.44783195	      0.00000000	      0.00000000	     -0.00000000	   -112.79516792	      0.00000000	     -0.00000000	      0.00000000	      0.00000000	      0.00000000	      0.00000000	      0.00000000	      0.00000000	      0.00000000
      2.34000000	      0.00000000	     -0.00000000	      0.00000000	      0.00000000	      0.00000000	      0.00000000	      0.00000000	      0.00000000	      0.00000000	     -6.60257959	      4.99130249	   -767.34094238	   -318.38441109	  -1077.06352631	      0.00000000	      0.00000000	      0.00000000	   1368.04426811	      5.35241102	     -2.85476851	    -45.74115372	   -502.27256146	   -853.94997418	      0.00000000	      0.00000000	      0.00000000	     42.00070826	      0.00000000	     -0.00000000	      0.00000000	      0.00000000	      0.00000000	      0.00000000	      0.00000000	      0.00000000	      0.00000000
      2.35000000	      0.00000000	     -0.00000000	      0.00000000	      0.00000000	      0.00000000	      0.00000000	      0.00000000	      0.00000000	      0.00000000	     -6.21816683	      4.00968122	   -765.23101807	   -318.19812092	  -1076.15042267	      0.00000000	      0.00000000	      0.00000000	   1399.60271939	      4.87986066	     -2.47224350	    -42.71388626	   -501.82367300	   -861.95457560	      0.00000000	      0.00000000	      0.00000000	    123.98690654	      0.00000000	     -0.00000000	      0.00000000	      0.00000000	      0.00000000	      0.00000000	      0.00000000	      0.00000000	      0.00000000
      2.36000000	      0.00000000	     -0.00000000	      0.00000000	      0.00000000	      0.00000000	      0.00000000	      0.00000000	      0.00000000	      0.00000000	     -7.01743889	      1.99375725	   -766.16680908	   -317.83107920	  -1076.08611946	      0.00000000	      0.00000000	     -0.00000000	   1443.30040507	      4.22917537	     -2.26661099	    -42.47517014	   -495.56541596	   -844.28644985	      0.00000000	      0.00000000	      0.00000000	    511.76814644	      0.00000000	     -0.00000000	      0.00000000	      0.00000000	      0.00000000	      0.00000000	      0.00000000	      0.00000000	      0.00000000
      2.37000000	      0.00000000	     -0.00000000	      0.00000000	      0.00000000	      0.00000000	      0.00000000	      0.00000000	      0.00000000	      0.00000000	     -6.69237041	      1.84308207	   -767.23291016	   -317.60237333	  -1075.47860965	      0.00000000	      0.00000000	      0.00000000	   1476.72426887	      4.76158505	     -2.14954609	    -39.33622742	   -495.17441573	   -849.82854056	      0.00000000	      0.00000000	      0.00000000	    210.94702366	      0.00000000	     -0.00000000	      0.00000000	      0.00000000	      0.00000000	      0.00000000	      0.00000000	      0.00000000	      0.00000000
      2.38000000	      0.00000000	     -0.00000000	      0.00000000	      0.00000000	      0.00000000	      0.00000000	      0.00000000	      0.00000000	      0.00000000	     -6.74967241	      1.30842364	   -769.69915771	   -317.64435441	  -1074.74013633	      0.00000000	      0.00000000	      0.00000000	   1621.06553208	      4.84907463	     -2.35479922	    -36.08605576	   -504.58409742	   -865.32369144	      0.00000000	      0.00000000	      0.00000000	    217.07557511	      0.00000000	     -0.00000000	      0.00000000	      0.00000000	      0.00000000	      0.00000000	      0.00000000	      0.00000000	      0.00000000
      2.39000000	      0.00000000	     -0.00000000	      0.00000000	      0.00000000	      0.00000000	      0.00000000	      0.00000000	      0.00000000	      0.00000000	     -7.40447235	      1.42608643	   -773.46411133	   -317.24903783	  -1074.73566692	      0.00000000	      0.00000000	      0.00000000	   1598.68742278	      5.67592791	     -2.32476809	    -34.45372391	   -496.11009042	   -858.77538835	      0.00000000	      0.00000000	      0.00000000	    183.17550878	      0.00000000	     -0.00000000	      0.00000000	      0.00000000	      0.00000000	      0.00000000	      0.00000000	      0.00000000	      0.00000000
      2.40000000	      0.00000000	     -0.00000000	      0.00000000	      0.00000000	      0.00000000	      0.00000000	      0.00000000	      0.00000000	      0.00000000	     -8.26611614	      2.70000386	   -778.52917480	   -316.92121954	  -1074.58927647	      0.00000000	     -0.00000000	      0.00000000	   1538.01193903	      5.85491161	     -2.20456413	    -32.11507416	   -494.34964804	   -846.47675267	      0.00000000	      0.00000000	      0.00000000	    289.62633979	      0.00000000	     -0.00000000	      0.00000000	      0.00000000	      0.00000000	      0.00000000	      0.00000000	      0.00000000	      0.00000000
      2.41000000	      0.00000000	     -0.00000000	      0.00000000	      0.00000000	      0.00000000	      0.00000000	      0.00000000	      0.00000000	      0.00000000	     -8.65341949	      1.81074703	   -779.46813965	   -315.77417745	  -1073.09481907	      0.00000000	      0.00000000	      0.00000000	   1768.92629402	      5.79641517	     -1.79843917	    -28.74934959	   -502.43557624	   -853.77657610	      0.00000000	      0.00000000	      0.00000000	    413.21915404	      0.00000000	     -0.00000000	      0.00000000	      0.00000000	      0.00000000	      0.00000000	      0.00000000	      0.00000000	      0.00000000
      2.42000000	      0.00000000	     -0.00000000	      0.00000000	      0.00000000	      0.00000000	      0.00000000	      0.00000000	      0.00000000	      0.00000000	     -9.53779221	      1.22498226	   -782.53582764	   -315.70027830	  -1073.43766857	      0.00000000	      0.00000000	      0.00000000	   1545.14388510	      5.91548475	     -1.82674185	    -27.69372177	   -496.65776859	   -845.30689105	      0.00000000	      0.00000000	      0.00000000	    578.52142825	      0.00000000	     -0.00000000	      0.00000000	      0.00000000	      0.00000000	      0.00000000	      0.00000000	      0.00000000	      0.00000000
      2.43000000	      0.00000000	     -0.00000000	      0.00000000	      0.00000000	      0.00000000	      0.00000000	      0.00000000	      0.00000000	      0.00000000	     -8.92934132	      0.32589114	   -781.34442139	   -315.17620081	  -1071.79280481	      0.00000000	      0.00000000	      0.00000000	   1743.41393771	      6.12571224	     -1.76411027	    -25.12054062	   -502.47743744	   -857.44139022	      0.00000000	      0.00000000	      0.00000000	    267.13236609	      0.00000000	     -0.00000000	      0.00000000	      0.00000000	      0.00000000	      0.00000000	      0.00000000	      0.00000000	      0.00000000
      2.44000000	      0.00000000	     -0.00000000	      0.00000000	      0.00000000	      0.00000000	      0.00000000	      0.00000000	      0.00000000	      0.00000000	     -8.59786415	      0.03068891	   -781.58715820	   -315.20079990	  -1071.30062776	      0.00000000	      0.00000000	      0.00000000	   1825.88903646	      5.82199654	     -1.65283481	    -23.40303230	   -510.48207693	   -878.55580845	      0.00000000	      0.00000000	      0.00000000	     78.86068418	      0.00000000	     -0.00000000	      0.00000000	      0.00000000	      0.00000000	      0.00000000	      0.00000000	      0.00000000	      0.00000000
      2.45000000	      0.00000000	     -0.00000000	      0.00000000	      0.00000000	      0.00000000	      0.00000000	      0.00000000	      0.00000000	      0.00000000	     -7.61684036	     -1.18945694	   -782.97491455	   -315.69557214	  -1071.19555761	      0.00000000	      0.00000000	      0.00000000	   1941.78641882	      5.49461634	     -1.94036341	    -24.21142197	   -506.66613611	   -852.47087322	      0.00000000	      0.00000000	      0.00000000	    228.54025850	      0.00000000	     -0.00000000	      0.00000000	      0.00000000	      0.00000000	      0.00000000	      0.00000000	      0.00000000	      0.00000000
      2.46000000	      0.00000000	     -0.00000000	      0.00000000	      0.00000000	      0.00000000	      0.00000000	      0.00000000	      0.00000000	      0.00000000	     -6.80750656	     -1.24448538	   -785.35003662	   -316.15622637	  -1070.84319604	      0.00000000	      0.00000000	      0.00000000	   1874.84513684	      4.58242018	     -1.90977292	    -23.30732346	   -515.14000887	   -872.58933498	      0.00000000	      0.00000000	      0.00000000	    105.37976514	      0.00000000	     -0.00000000	      0.00000000	      0.00000000	      0.00000000	      0.00000000	      0.00000000	      0.00000000	      0.00000000
      2.47000000	      0.00000000	     -0.00000000	      0.00000000	      0.00000000	      0.00000000	      0.00000000	      0.00000000	      0.00000000	      0.00000000	     -6.39223242	     -0.94597936	   -787.14385986	   -316.29082721	  -1070.57268311	      0.00000000	      0.00000000	      0.00000000	   1876.15665128	      4.61296068	     -1.58979075	    -23.87510872	   -501.21146914	   -870.21047892	      0.00000000	      0.00000000	      0.00000000	    106.41898226	      0.00000000	     -0.00000000	      0.00000000	      0.00000000	      0.00000000	      0.00000000	      0.00000000	      0.00000000	      0.00000000
      2.48000000	      0.00000000	     -0.00000000	      0.00000000	      0.00000000	      0.00000000	      0.00000000	      0.00000000	      0.00000000	      0.00000000	     -5.89538908	     -1.03486228	   -787.71398926	   -316.18965829	  -1070.06403781	      0.00000000	      0.00000000	      0.00000000	   1952.40047730	      4.90976752	     -1.21256073	    -24.21219063	   -500.14139939	   -863.31260899	      0.00000000	      0.00000000	      0.00000000	    253.78243892	      0.00000000	     -0.00000000	      0.00000000	      0.00000000	      0.00000000	      0.00000000	      0.00000000	      0.00000000	      0.00000000
